<svg id="ic-description" xmlns="http://www.w3.org/2000/svg" width="24" height="24" viewBox="0 0 24 24">
  <g id="Group_3022" data-name="Group 3022">
    <path id="Path_3409" data-name="Path 3409" d="M0,0H24V24H0Z" fill="none"/>
  </g>
  <g id="Group_3024" data-name="Group 3024">
    <g id="Group_3023" data-name="Group 3023">
      <path id="Path_3410" data-name="Path 3410" d="M15,3H5A2,2,0,0,0,3.01,5L3,19a2,2,0,0,0,1.99,2H19a2.006,2.006,0,0,0,2-2V9ZM8,17a1,1,0,1,1,1-1A1,1,0,0,1,8,17Zm0-4a1,1,0,1,1,1-1A1,1,0,0,1,8,13ZM8,9A1,1,0,1,1,9,8,1,1,0,0,1,8,9Zm6,1V4.5L19.5,10Z" fill=""/>
    </g>
  </g>
</svg>
