<svg id="ic-pdf-file" xmlns="http://www.w3.org/2000/svg" width="24" height="24" viewBox="0 0 24 24">
  <g id="Group_2939" data-name="Group 2939">
    <rect id="Rectangle_989" data-name="Rectangle 989" width="24" height="24" fill="none"/>
  </g>
  <path id="Path_3393" data-name="Path 3393" d="M12.19,13.25H12v4.49h.23c.64,0,.68-.28.68-.86V14.05C12.88,13.49,12.82,13.25,12.19,13.25Z" fill="#e34750"/>
  <path id="Path_3394" data-name="Path 3394" d="M7.76,13.26H7.29V15h.48c.53,0,.63-.28.63-.87S8.34,13.26,7.76,13.26Z" fill="#e34750"/>
  <path id="Path_3395" data-name="Path 3395" d="M14,2H6A2,2,0,0,0,4,4V20a2,2,0,0,0,2,2H18a2,2,0,0,0,2-2V8ZM7.87,16H7.29v2.75H5.86v-6.5H8c1.15,0,1.7.68,1.7,1.88C9.74,15.63,8.92,16,7.87,16Zm6.48.67c0,1.46-.48,2.08-2.15,2.08H10.54v-6.5h1.64c1.69,0,2.17.61,2.17,2.05Zm3.79-3.43H16.77v1.63H18v1H16.77v2.88H15.34v-6.5h2.8ZM13,9V3.5L18.5,9Z" fill="#e34750"/>
  <path id="Path_3396" data-name="Path 3396" d="M8,12.25H5.86v6.48H7.29V16h.58a1.628,1.628,0,0,0,1.87-1.85C9.74,12.93,9.19,12.25,8,12.25ZM7.77,15H7.29V13.26h.47c.58,0,.64.36.64.85S8.3,15,7.77,15Z" fill="#fff"/>
  <path id="Path_3397" data-name="Path 3397" d="M12.18,12.25H10.54v6.48H12.2c1.67,0,2.15-.62,2.15-2.08V14.3C14.35,12.86,13.87,12.25,12.18,12.25Zm.7,4.63c0,.58,0,.86-.68.86H12V13.25h.22c.63,0,.69.24.69.8Z" fill="#fff"/>
  <path id="Path_3398" data-name="Path 3398" d="M15.34,18.73h1.43V15.85h1.19v-1H16.77V13.22h1.37v-.97h-2.8Z" fill="#fff"/>
  <path id="Path_3399" data-name="Path 3399" d="M13,9h5.5L13,3.5Z" fill="#fff"/>
</svg>
