<svg id="ic-video-file" xmlns="http://www.w3.org/2000/svg" width="24" height="24" viewBox="0 0 24 24">
  <g id="Group_2939" data-name="Group 2939">
    <rect id="Rectangle_989" data-name="Rectangle 989" width="24" height="24" fill="none"/>
  </g>
  <g id="Group_2940" data-name="Group 2940">
    <path id="Path_3331" data-name="Path 3331" d="M14,2H6A2,2,0,0,0,4,4V20a2,2,0,0,0,2,2H18a2,2,0,0,0,2-2V8ZM13,9V3.5L18.5,9Zm1,5,2-1.06v4.12L14,16v1a1,1,0,0,1-1,1H9a1,1,0,0,1-1-1V13a1,1,0,0,1,1-1h4a1,1,0,0,1,1,1Z" fill=""/>
  </g>
</svg>
