<svg id="ic-zip-file" xmlns="http://www.w3.org/2000/svg" width="24" height="24" viewBox="0 0 24 24">
  <g id="Group_2937" data-name="Group 2937">
    <rect id="Rectangle_987" data-name="Rectangle 987" width="24" height="24" fill="none"/>
  </g>
  <g id="Group_2938" data-name="Group 2938">
    <path id="Path_3319" data-name="Path 3319" d="M20,6H12L10,4H4A2,2,0,0,0,2,6V18a2,2,0,0,0,2,2H20a2,2,0,0,0,2-2V8A2,2,0,0,0,20,6Zm-2,6H16v2h2v2H16v2H14V16h2V14H14V12h2V10H14V8h2v2h2Z" fill=""/>
  </g>
</svg>
